<svg width="20" height="21" viewBox="0 0 20 21" fill="none" xmlns="http://www.w3.org/2000/svg">
  <path fill-rule="evenodd" clip-rule="evenodd"
    d="M11.0505 3.16759L12.7915 6.69573C12.954 7.02647 13.2702 7.25612 13.6349 7.30949L17.5294 7.87474C18.448 8.00817 18.8159 9.13785 18.1504 9.78639L15.3331 12.5334C15.0686 12.7905 14.9481 13.1609 15.0104 13.5256L15.6759 17.4031C15.8328 18.3184 14.8721 19.0171 14.0497 18.5845L10.5661 16.7537C10.2402 16.5823 9.85042 16.5823 9.52373 16.7537L6.04087 18.5845C5.21848 19.0171 4.2578 18.3184 4.41468 17.4031L5.07939 13.5256C5.14166 13.1609 5.02198 12.7905 4.75755 12.5334L1.9394 9.78639C1.27469 9.13785 1.64182 8.00817 2.56126 7.87474L6.4549 7.30949C6.82041 7.25612 7.13578 7.02647 7.29832 6.69573L9.04015 3.16759C9.45095 2.33468 10.6389 2.33468 11.0505 3.16759Z"
    stroke="currentColor" stroke-width="1.6" stroke-linecap="round" stroke-linejoin="round"></path>
  <path
    d="M11.603 11.8739C11.413 12.5556 10.7871 13.0554 10.0447 13.0554C9.29592 13.0554 8.66679 12.5467 8.48242 11.8569"
    stroke="currentColor" stroke-width="1.6" stroke-linecap="round" stroke-linejoin="round"></path>
</svg>
