<svg width="14" height="14" viewBox="0 0 14 14" fill="none" xmlns="http://www.w3.org/2000/svg">
  <path fill-rule="evenodd" clip-rule="evenodd"
    d="M1.33331 6.99856C1.33331 3.86895 3.87037 1.33189 6.99998 1.33189C10.1296 1.33189 12.6666 3.86895 12.6666 6.99856C12.6666 10.1282 10.1296 12.6652 6.99998 12.6652C3.87037 12.6652 1.33331 10.1282 1.33331 6.99856ZM6.99998 0.331894C3.31808 0.331894 0.333313 3.31666 0.333313 6.99856C0.333313 10.6805 3.31808 13.6652 6.99998 13.6652C10.6819 13.6652 13.6666 10.6805 13.6666 6.99856C13.6666 3.31666 10.6819 0.331894 6.99998 0.331894ZM3.86906 5.1694C3.64717 5.00504 3.33404 5.05167 3.16967 5.27357C3.0053 5.49547 3.05194 5.80859 3.27383 5.97296L4.38316 6.79468L3.31655 7.42675C3.07898 7.56753 3.00052 7.87424 3.1413 8.1118C3.28208 8.34936 3.58879 8.42782 3.82635 8.28704L5.54064 7.27117C5.68472 7.18579 5.77649 7.03393 5.78508 6.86666C5.79366 6.6994 5.71793 6.53894 5.58335 6.43925L3.86906 5.1694ZM9.19868 9.12427C9.26733 8.85679 9.10614 8.58432 8.83866 8.51568C8.57119 8.44703 8.29871 8.60822 8.23007 8.8757C8.12783 9.2741 7.91882 9.35151 7.82837 9.35672C7.73714 9.36198 7.56566 9.30898 7.47888 9.02064C7.4153 8.80937 7.22077 8.66475 7.00014 8.66473C6.77952 8.66471 6.58496 8.80929 6.52133 9.02054C6.43447 9.30894 6.26291 9.36198 6.17165 9.35672C6.08124 9.35151 5.87229 9.27414 5.77013 8.87578C5.70154 8.6083 5.42909 8.44706 5.16161 8.51565C4.89412 8.58425 4.73288 8.8567 4.80148 9.12418C4.98493 9.83957 5.49021 10.3191 6.11409 10.3551C6.44528 10.3742 6.75379 10.264 7.00004 10.0574C7.24625 10.264 7.55475 10.3742 7.88594 10.3551C8.50978 10.3191 9.01511 9.83962 9.19868 9.12427ZM10.8303 5.27357C10.666 5.05167 10.3528 5.00504 10.1309 5.1694L8.41665 6.43925C8.28207 6.53894 8.20634 6.6994 8.21492 6.86666C8.22351 7.03393 8.31528 7.18579 8.45936 7.27117L10.1737 8.28704C10.4112 8.42782 10.7179 8.34936 10.8587 8.1118C10.9995 7.87424 10.921 7.56753 10.6835 7.42675L9.61684 6.79468L10.7262 5.97296C10.9481 5.80859 10.9947 5.49547 10.8303 5.27357Z"
    fill="#61666D"></path>
</svg>
