<svg id="lv_0" fill="none" viewBox="0 0 26 14">
  <path fill-rule="evenodd" clip-rule="evenodd"
    d="M24.418 1.27246H16.6849C16.26 1.27246 16.0051 1.6103 16.0051 1.94815V2.45491H1.98354C1.55865 2.45491 1.30371 2.79275 1.30371 3.12975V12.1679C1.30371 12.5902 1.64363 12.8427 1.98354 12.8427H24.3331C24.7579 12.8427 25.0137 12.5057 25.0137 12.1679V1.94815C25.0265 1.52246 24.7579 1.27246 24.418 1.27246ZM23.6537 10.8161C23.6537 11.2384 23.3146 11.4918 22.9738 11.4918H18.13C17.7051 11.4918 17.4502 11.1531 17.4502 10.8161V3.38356C17.4502 2.96126 17.791 2.70703 18.13 2.70703H22.9738C23.3987 2.70703 23.6537 3.04572 23.6537 3.38356V10.8161ZM14.9011 9.04187C14.9861 8.95826 15.156 8.78934 15.156 8.61957V4.48185C15.156 4.22847 14.9011 3.97424 14.6462 3.97424H13.9672C13.7114 3.97424 13.4565 4.22847 13.4565 4.48185V8.28257L12.0118 9.71756L10.5672 8.28257V4.39654C10.5672 4.14401 10.3122 3.89062 10.0573 3.89062H9.37746C9.12253 3.89062 8.86759 4.14401 8.86759 4.39654V8.53595C8.86249 8.70994 8.86759 8.95234 8.95257 9.04187L11.332 11.4068C11.5019 11.5757 11.9268 11.5757 11.9268 11.5757C11.9268 11.5757 12.3517 11.5757 12.5217 11.4068L14.9011 9.04187ZM7.84728 11.0698C7.84728 11.3232 7.59234 11.5757 7.33741 11.5757H3.25841C3.00347 11.5757 2.74854 11.3232 2.74854 11.0698V4.39654C2.74854 4.14401 3.00347 3.89062 3.25841 3.89062H3.93824C4.19318 3.89062 4.44812 4.14401 4.44812 4.39654V9.88648H7.33741C7.59234 9.88648 7.84728 10.1399 7.84728 10.3941V11.0698ZM19.5745 4.31348H21.529C21.7839 4.31348 22.0397 4.56686 22.0397 4.8194V9.38111C22.0397 9.63449 21.7839 9.88703 21.529 9.88703H19.5745C19.3195 9.88703 19.0654 9.63449 19.0654 9.38111V4.8194C19.0654 4.56686 19.3195 4.31348 19.5745 4.31348Z"
    fill="#C0C0C0"></path>
</svg>
