<svg id="lv_1" fill="none" viewBox="0 0 26 14">
  <rect x="2" y="2.32422" width="22" height="9.67113" fill="white"></rect>
  <path fill-rule="evenodd" clip-rule="evenodd"
    d="M24.3308 1C24.6687 1 25.0082 1.3378 24.9235 1.6756V11.8946C24.9235 12.2324 24.6687 12.5702 24.2453 12.5702H1.97681C1.63898 12.5702 1.30029 12.3169 1.30029 11.8946V2.858C1.30029 2.5202 1.55346 2.1824 1.97681 2.1824H15.9475V1.6756C15.9475 1.3378 16.2016 1 16.6249 1H24.3308ZM20.6043 2.6055H18.9109C18.6577 2.6055 18.4037 2.8588 18.4037 3.1122V3.7878C18.4037 4.0412 18.6577 4.2946 18.9109 4.2946H19.4198V9.6152H18.7416C18.4875 9.6152 18.2344 9.8677 18.2344 10.1219V10.7975C18.2344 11.0509 18.4875 11.3043 18.7416 11.3043H21.7963C22.0503 11.3043 22.3197 11.0509 22.3197 10.7975V10.1248C22.3197 9.8715 22.0503 9.6123 21.7963 9.6123H21.1132V3.1122C21.1132 2.8588 20.8583 2.6055 20.6043 2.6055ZM10.021 3.6182H9.34445C9.09044 3.6182 8.83643 3.8715 8.83643 4.1249L8.83668 8.34191C8.83816 8.50928 8.84853 8.7243 8.9211 8.7699L11.291 11.1338C11.4612 11.3035 11.8846 11.3035 11.8846 11.3035L11.8993 11.3033C11.9755 11.3014 12.3267 11.2846 12.4773 11.1338L14.8481 8.7699C14.8669 8.7509 14.8901 8.7311 14.9147 8.71C14.9995 8.6375 15.1012 8.5505 15.1012 8.4329V4.2093C15.1012 3.956 14.8481 3.7026 14.5941 3.7026H13.9167C13.6618 3.7026 13.4078 3.956 13.4078 4.2093V8.0098L11.9693 9.4447L10.5299 8.0098V4.1249C10.5299 3.8715 10.2758 3.6182 10.021 3.6182ZM3.92514 3.6182H3.24693C2.99376 3.6182 2.73975 3.8715 2.73975 4.1249V10.7968C2.73975 11.0501 2.99376 11.3035 3.24693 11.3035H7.31198C7.56515 11.3035 7.82001 11.0501 7.82001 10.7968V10.1212C7.82001 9.8669 7.566 9.6144 7.31198 9.6144H4.43317V4.1249C4.43317 3.8715 4.17915 3.6182 3.92514 3.6182Z"
    fill="#C0C0C0"></path>
</svg>
