<svg id="lv_2" fill="none" viewBox="0 0 26 14">
  <rect x="2" y="2.34814" width="22" height="9.67113" fill="white"></rect>
  <path fill-rule="evenodd" clip-rule="evenodd"
    d="M24.3302 1C24.6689 1 25.0076 1.3378 24.9237 1.6757V11.8954C24.9237 12.2333 24.6689 12.5702 24.2455 12.5702H1.97764C1.63897 12.5702 1.30029 12.3177 1.30029 11.8954V2.8573C1.30029 2.5203 1.5543 2.1824 1.97764 2.1824H15.948V1.6757C15.948 1.3378 16.202 1 16.6253 1H24.3302ZM10.0218 3.6182H9.34444C9.09043 3.6182 8.83643 3.8715 8.83643 4.1241V8.2635C8.83643 8.4546 8.83643 8.7159 8.92109 8.7694L11.2918 11.1343C11.4612 11.3032 11.8845 11.3032 11.8845 11.3032C11.8845 11.3032 12.3078 11.3032 12.4772 11.1343L15.0172 8.7694C15.1019 8.6858 15.1019 8.5169 15.1019 8.3471V4.2094C15.1019 3.956 14.8479 3.7018 14.5939 3.7018H13.9174C13.6625 3.7018 13.4085 3.956 13.4085 4.2094V8.0101L11.9692 9.4451L10.5298 8.0101V4.1241C10.5298 3.8715 10.2758 3.6182 10.0218 3.6182ZM3.92511 3.6182H3.24776C2.99375 3.6182 2.73975 3.8715 2.73975 4.1241V10.7973C2.73975 11.0507 2.99375 11.3032 3.24776 11.3032H7.31186C7.56587 11.3032 7.81987 11.0507 7.81987 10.7973V10.1216C7.81987 9.8674 7.56587 9.614 7.31186 9.614H4.43312V4.1241C4.43312 3.8715 4.17912 3.6182 3.92511 3.6182ZM23.0608 2.3506H17.8114C17.5574 2.3506 17.3042 2.604 17.3042 2.8565V3.533C17.3042 3.7864 17.5574 4.0398 17.8114 4.0398H21.8755V5.9824H17.8114C17.5574 5.9824 17.3042 6.2349 17.3042 6.4892V10.7966C17.3042 11.05 17.5574 11.3026 17.8114 11.3026H23.0608C23.3148 11.3026 23.5688 11.05 23.5688 10.7966V10.121C23.5688 9.8667 23.3148 9.6133 23.0608 9.6133H18.9976V7.6716H23.0608C23.3148 7.6716 23.5688 7.4182 23.5688 7.1648V2.8565C23.5688 2.604 23.3148 2.3506 23.0608 2.3506Z"
    fill="#8BD29B"></path>
</svg>
