<svg id="lv_3" fill="none" viewBox="0 0 26 14">
  <rect x="2" y="2.39014" width="22" height="9.67113" fill="white"></rect>
  <path fill-rule="evenodd" clip-rule="evenodd"
    d="M24.0299 1C24.3686 1 24.7073 1.3378 24.6234 1.6756V11.8946C24.6234 12.2324 24.3686 12.5702 23.9452 12.5702H1.67735C1.33867 12.5702 1 12.3169 1 11.8946V2.858C1 2.5202 1.25401 2.1824 1.67735 2.1824H15.6477V1.6756C15.6477 1.3378 15.9017 1 16.3251 1H24.0299ZM9.7215 3.6182H9.04415C8.79014 3.6182 8.53613 3.8715 8.53613 4.1249V8.2632C8.53613 8.4435 8.53613 8.7141 8.6208 8.7699L10.9915 11.1338C11.1421 11.2846 11.4933 11.3014 11.5695 11.3033L11.5842 11.3035C11.5842 11.3035 12.0076 11.3035 12.1769 11.1338L14.717 8.7699C14.8016 8.6854 14.8016 8.5165 14.8016 8.3476V4.2093C14.8016 3.956 14.5476 3.7026 14.2936 3.7026H13.6171C13.3623 3.7026 13.1082 3.956 13.1082 4.2093V8.0098L11.6689 9.4447L10.2295 8.0098V4.1249C10.2295 3.8715 9.9755 3.6182 9.7215 3.6182ZM3.62482 3.6182H2.94747C2.69346 3.6182 2.43945 3.8715 2.43945 4.1249V10.7968C2.43945 11.0501 2.69346 11.3035 2.94747 11.3035H7.01157C7.26557 11.3035 7.51958 11.0501 7.51958 10.7968V10.1212C7.51958 9.8669 7.26557 9.6144 7.01157 9.6144H4.13283V4.1249C4.13283 3.8715 3.87882 3.6182 3.62482 3.6182ZM22.7605 2.3506H17.5111C17.2571 2.3506 17.0039 2.6039 17.0039 2.8573V3.5329C17.0039 3.7863 17.2571 4.0397 17.5111 4.0397H21.5752V5.9821H17.5111C17.2571 5.9821 17.0039 6.2355 17.0039 6.4888V7.1645C17.0039 7.4178 17.2571 7.6712 17.5111 7.6712H21.5752V9.6137H17.5111C17.2571 9.6137 17.0039 9.8662 17.0039 10.1204V10.796C17.0039 11.0494 17.2571 11.3027 17.5111 11.3027H22.7605C23.0145 11.3027 23.2686 11.0494 23.2686 10.796V2.8573C23.2686 2.6039 23.0145 2.3506 22.7605 2.3506Z"
    fill="#7BCDEF"></path>
</svg>
