<svg width="24" height="24" viewBox="0 0 24 24" xmlns="http://www.w3.org/2000/svg">
  <path fill-rule="evenodd" clip-rule="evenodd" fill="currentColor"
    d="M13.7484 5.49841C13.7484 6.46404 12.9656 7.24683 11.9999 7.24683C11.0343 7.24683 10.2515 6.46404 10.2515 5.49841C10.2515 4.53279 11.0343 3.75 11.9999 3.75C12.9656 3.75 13.7484 4.53279 13.7484 5.49841ZM13.7484 18.4985C13.7484 19.4641 12.9656 20.2469 11.9999 20.2469C11.0343 20.2469 10.2515 19.4641 10.2515 18.4985C10.2515 17.5328 11.0343 16.75 11.9999 16.75C12.9656 16.75 13.7484 17.5328 13.7484 18.4985ZM11.9999 13.7485C12.9656 13.7485 13.7484 12.9656 13.7484 12C13.7484 11.0343 12.9656 10.2515 11.9999 10.2515C11.0343 10.2515 10.2515 11.0343 10.2515 12C10.2515 12.9656 11.0343 13.7485 11.9999 13.7485Z">
  </path>
</svg>
