<svg width="24" height="24" viewBox="0 0 24 24" xmlns="http://www.w3.org/2000/svg" fill="currentColor">
  <path fill-rule="evenodd" clip-rule="evenodd"
    d="M9.40194 3.75C10.5566 1.74999 13.4434 1.75001 14.5981 3.75L21.7428 16.125C22.8975 18.125 21.4541 20.625 19.1447 20.625H4.8553C2.5459 20.625 1.10253 18.125 2.25723 16.125L9.40194 3.75ZM12.866 4.75C12.4811 4.08333 11.5189 4.08333 11.134 4.75L3.98928 17.125C3.60438 17.7917 4.08551 18.625 4.8553 18.625H19.1447C19.9145 18.625 20.3957 17.7917 20.0108 17.125L12.866 4.75Z">
  </path>
  <path fill-rule="evenodd" clip-rule="evenodd"
    d="M12 8C12.4142 8 12.75 8.33579 12.75 8.75V13.75C12.75 14.1642 12.4142 14.5 12 14.5C11.5858 14.5 11.25 14.1642 11.25 13.75V8.75C11.25 8.33579 11.5858 8 12 8Z">
  </path>
  <path fill-rule="evenodd" clip-rule="evenodd"
    d="M12 15.5C12.4142 15.5 12.75 15.8358 12.75 16.25V16.75C12.75 17.1642 12.4142 17.5 12 17.5C11.5858 17.5 11.25 17.1642 11.25 16.75V16.25C11.25 15.8358 11.5858 15.5 12 15.5Z">
  </path>
</svg>
