<svg xmlns="http://www.w3.org/2000/svg" viewBox="0 0 88 88" width="88" height="88" preserveAspectRatio="xMidYMid meet"
  style="width: 100%; height: 100%; transform: translate3d(0px, 0px, 0px);">
  <defs>
    <clipPath id="__lottie_element_174">
      <rect width="88" height="88" x="0" y="0"></rect>
    </clipPath>
  </defs>
  <g clip-path="url(#__lottie_element_174)">
    <g transform="matrix(1,0,0,1,44,44)" opacity="1" style="display: block;">
      <g opacity="1" transform="matrix(1,0,0,1,0,0)">
        <path fill="rgb(255,255,255)" fill-opacity="1"
          d=" M-14,-20 C-14,-20 -26,-20 -26,-20 C-27.049999237060547,-20 -27.920000076293945,-19.18000030517578 -27.989999771118164,-18.149999618530273 C-27.989999771118164,-18.149999618530273 -28,-18 -28,-18 C-28,-18 -28,-6 -28,-6 C-28,-4.949999809265137 -27.18000030517578,-4.079999923706055 -26.149999618530273,-4.010000228881836 C-26.149999618530273,-4.010000228881836 -26,-4 -26,-4 C-26,-4 -22,-4 -22,-4 C-20.950000762939453,-4 -20.079999923706055,-4.820000171661377 -20.010000228881836,-5.849999904632568 C-20.010000228881836,-5.849999904632568 -20,-6 -20,-6 C-20,-6 -20,-12 -20,-12 C-20,-12 -14,-12 -14,-12 C-12.949999809265137,-12 -12.079999923706055,-12.819999694824219 -12.010000228881836,-13.850000381469727 C-12.010000228881836,-13.850000381469727 -12,-14 -12,-14 C-12,-14 -12,-18 -12,-18 C-12,-19.049999237060547 -12.819999694824219,-19.920000076293945 -13.850000381469727,-19.989999771118164 C-13.850000381469727,-19.989999771118164 -14,-20 -14,-20z M26,-20 C26,-20 14,-20 14,-20 C12.949999809265137,-20 12.079999923706055,-19.18000030517578 12.010000228881836,-18.149999618530273 C12.010000228881836,-18.149999618530273 12,-18 12,-18 C12,-18 12,-14 12,-14 C12,-12.949999809265137 12.819999694824219,-12.079999923706055 13.850000381469727,-12.010000228881836 C13.850000381469727,-12.010000228881836 14,-12 14,-12 C14,-12 20,-12 20,-12 C20,-12 20,-6 20,-6 C20,-4.949999809265137 20.81999969482422,-4.079999923706055 21.850000381469727,-4.010000228881836 C21.850000381469727,-4.010000228881836 22,-4 22,-4 C22,-4 26,-4 26,-4 C27.049999237060547,-4 27.920000076293945,-4.820000171661377 27.989999771118164,-5.849999904632568 C27.989999771118164,-5.849999904632568 28,-6 28,-6 C28,-6 28,-18 28,-18 C28,-19.049999237060547 27.18000030517578,-19.920000076293945 26.149999618530273,-19.989999771118164 C26.149999618530273,-19.989999771118164 26,-20 26,-20z M-22,4 C-22,4 -26,4 -26,4 C-27.049999237060547,4 -27.920000076293945,4.820000171661377 -27.989999771118164,5.849999904632568 C-27.989999771118164,5.849999904632568 -28,6 -28,6 C-28,6 -28,18 -28,18 C-28,19.049999237060547 -27.18000030517578,19.920000076293945 -26.149999618530273,19.989999771118164 C-26.149999618530273,19.989999771118164 -26,20 -26,20 C-26,20 -14,20 -14,20 C-12.949999809265137,20 -12.079999923706055,19.18000030517578 -12.010000228881836,18.149999618530273 C-12.010000228881836,18.149999618530273 -12,18 -12,18 C-12,18 -12,14 -12,14 C-12,12.949999809265137 -12.819999694824219,12.079999923706055 -13.850000381469727,12.010000228881836 C-13.850000381469727,12.010000228881836 -14,12 -14,12 C-14,12 -20,12 -20,12 C-20,12 -20,6 -20,6 C-20,4.949999809265137 -20.81999969482422,4.079999923706055 -21.850000381469727,4.010000228881836 C-21.850000381469727,4.010000228881836 -22,4 -22,4z M26,4 C26,4 22,4 22,4 C20.950000762939453,4 20.079999923706055,4.820000171661377 20.010000228881836,5.849999904632568 C20.010000228881836,5.849999904632568 20,6 20,6 C20,6 20,12 20,12 C20,12 14,12 14,12 C12.949999809265137,12 12.079999923706055,12.819999694824219 12.010000228881836,13.850000381469727 C12.010000228881836,13.850000381469727 12,14 12,14 C12,14 12,18 12,18 C12,19.049999237060547 12.819999694824219,19.920000076293945 13.850000381469727,19.989999771118164 C13.850000381469727,19.989999771118164 14,20 14,20 C14,20 26,20 26,20 C27.049999237060547,20 27.920000076293945,19.18000030517578 27.989999771118164,18.149999618530273 C27.989999771118164,18.149999618530273 28,18 28,18 C28,18 28,6 28,6 C28,4.949999809265137 27.18000030517578,4.079999923706055 26.149999618530273,4.010000228881836 C26.149999618530273,4.010000228881836 26,4 26,4z M28,-28 C32.41999816894531,-28 36,-24.420000076293945 36,-20 C36,-20 36,20 36,20 C36,24.420000076293945 32.41999816894531,28 28,28 C28,28 -28,28 -28,28 C-32.41999816894531,28 -36,24.420000076293945 -36,20 C-36,20 -36,-20 -36,-20 C-36,-24.420000076293945 -32.41999816894531,-28 -28,-28 C-28,-28 28,-28 28,-28z">
        </path>
      </g>
    </g>
  </g>
</svg>
